<?xml version="1.0" standalone="no"?>
<!DOCTYPE svg PUBLIC "-//W3C//DTD SVG 20010904//EN"
 "http://www.w3.org/TR/2001/REC-SVG-20010904/DTD/svg10.dtd">
<svg version="1.0" xmlns="http://www.w3.org/2000/svg"
 width="300.000000pt" height="300.000000pt" viewBox="0 0 300.000000 300.000000"
 preserveAspectRatio="xMidYMid meet">
<metadata>
Created by potrace 1.10, written by Peter Selinger 2001-2011
</metadata>
<g transform="translate(0.000000,300.000000) scale(0.100000,-0.100000)"
fill="#000000" stroke="none">
<path d="M1535 2858 c-2 -7 -4 -20 -3 -28 4 -48 1 -50 -67 -50 -37 0 -65 -4
-65 -10 0 -11 15 -13 82 -11 l47 1 3 -48 c4 -59 22 -62 26 -4 l3 42 60 0 c33
0 59 4 59 10 0 11 -33 14 -88 11 l-34 -3 4 48 c2 31 -1 48 -9 51 -7 3 -15 -1
-18 -9z"/>
<path d="M2250 2799 c-25 -3 -39 -7 -32 -7 19 -3 14 -30 -13 -70 -14 -20 -25
-40 -25 -44 0 -18 -65 -101 -83 -106 -15 -4 -8 -9 29 -23 27 -11 50 -19 51
-19 0 0 -1 8 -4 19 -3 10 10 41 31 74 20 31 36 60 36 66 0 5 15 29 34 54 19
24 31 48 27 53 -3 5 -26 6 -51 3z"/>
<path d="M1026 2779 c-21 -17 -27 -18 -32 -6 -4 12 -10 12 -40 -2 -40 -18 -42
-23 -12 -36 15 -7 29 -33 48 -91 15 -44 30 -86 34 -93 4 -6 2 -19 -5 -27 -16
-20 -2 -31 21 -16 11 7 34 12 52 13 32 1 32 1 8 10 -24 9 -50 48 -50 75 0 7
19 15 41 19 81 14 117 98 64 150 -31 32 -91 34 -129 4z m97 -47 c24 -40 12
-78 -27 -88 -36 -9 -57 8 -77 60 -16 43 -16 47 -1 56 10 5 33 9 52 7 27 -1 38
-9 53 -35z"/>
<path d="M1944 2760 c-59 -24 -73 -124 -21 -147 39 -17 112 -16 127 2 12 14 9
15 -32 10 -41 -6 -48 -4 -67 21 -23 30 -24 33 -13 52 7 10 20 10 70 -2 49 -11
63 -12 72 -1 37 44 -66 94 -136 65z m95 -24 c16 -20 -2 -29 -39 -21 -29 6 -37
15 -23 28 11 12 50 7 62 -7z"/>
<path d="M2388 2717 c15 -17 -114 -191 -146 -195 -32 -5 -27 -16 16 -32 20 -8
40 -16 45 -18 4 -2 7 4 7 14 0 18 107 173 144 209 l20 20 -29 6 c-53 12 -69
10 -57 -4z"/>
<path d="M704 2704 c-38 -18 -53 -48 -46 -92 6 -46 43 -72 101 -72 64 0 94 18
109 64 11 33 10 42 -4 63 -17 27 -70 53 -106 53 -13 0 -37 -7 -54 -16z m110
-62 c36 -51 28 -75 -26 -80 -30 -3 -40 3 -67 33 -49 56 -37 99 29 93 27 -2 40
-11 64 -46z"/>
<path d="M2535 2620 c-10 -16 14 -40 40 -40 26 0 39 22 22 39 -14 14 -54 14
-62 1z"/>
<path d="M422 2567 c-12 -13 -22 -29 -22 -35 0 -7 -15 -12 -34 -12 -25 0 -40
-7 -55 -26 -11 -15 -27 -24 -34 -21 -7 3 -20 -8 -29 -24 -13 -22 -14 -29 -4
-29 7 0 36 -19 65 -42 39 -32 50 -46 45 -61 -6 -19 3 -18 31 5 6 5 19 15 30
23 19 14 19 14 -5 15 -29 0 -100 66 -100 91 0 9 11 21 25 27 22 10 30 7 72
-30 27 -22 50 -47 51 -55 2 -8 7 -13 10 -11 4 2 19 10 35 17 27 14 39 38 13
28 -9 -4 -34 12 -61 38 -41 38 -45 46 -36 64 20 36 58 27 113 -28 l49 -50 35
21 c38 22 44 33 14 23 -15 -5 -29 3 -53 27 -70 73 -117 86 -155 45z"/>
<path d="M2466 2547 c8 -21 -57 -96 -83 -96 -13 -1 -23 -5 -23 -10 0 -5 10
-13 23 -17 12 -3 30 -13 40 -22 15 -14 17 -13 17 5 0 10 25 46 55 78 30 32 53
60 52 61 -1 0 -21 4 -44 8 -33 5 -41 3 -37 -7z"/>
<path d="M2603 2448 c-48 -10 -83 -47 -83 -87 0 -33 53 -71 98 -71 43 0 40 14
-5 26 -33 8 -38 13 -41 41 -2 24 2 34 17 43 17 9 28 5 62 -20 48 -34 65 -37
77 -12 14 25 -3 59 -37 76 -33 18 -30 18 -88 4z m95 -30 c16 -14 15 -27 -4
-35 -17 -6 -67 35 -58 49 6 10 42 1 62 -14z"/>
<path d="M2105 2220 c-39 -6 -105 -38 -105 -51 0 -3 35 -6 78 -6 42 1 86 -2
97 -5 11 -4 24 -7 29 -7 5 -1 39 -33 77 -72 81 -84 93 -119 60 -174 -12 -20
-21 -50 -21 -66 0 -62 -92 -129 -205 -150 -33 -6 -70 -16 -82 -22 -17 -8 -28
-6 -49 8 -27 17 -28 17 -46 -5 -11 -14 -18 -37 -17 -54 1 -17 -2 -39 -6 -48
-4 -9 -4 -21 -1 -27 7 -11 -49 -61 -69 -61 -11 0 -12 -6 -6 -22 6 -16 3 -30
-9 -48 -36 -52 -34 -77 8 -99 25 -13 30 0 7 19 -21 17 -19 47 4 60 27 14 41
13 41 -4 0 -23 29 -39 73 -41 30 -2 41 -7 39 -16 -3 -11 -1 -12 10 -1 9 9 10
17 1 31 -9 15 -8 17 9 16 34 -2 50 -40 21 -48 -13 -3 -11 -5 7 -7 15 -1 7 -5
-23 -10 -27 -5 -57 -16 -68 -26 -25 -23 -24 -9 1 18 28 31 4 43 -40 22 -30
-15 -32 -19 -25 -53 3 -20 8 -49 9 -65 4 -36 32 -58 66 -51 20 4 30 -1 48 -24
15 -20 18 -32 11 -37 -6 -3 -15 0 -20 7 -7 12 -10 12 -21 0 -10 -10 -10 -12 0
-7 6 4 12 2 12 -3 0 -6 -11 -11 -25 -11 -14 0 -28 -7 -32 -16 -3 -8 -12 -13
-20 -10 -8 3 -24 0 -36 -6 -12 -7 -26 -11 -31 -10 -4 2 -19 -4 -32 -13 -21
-14 -25 -14 -30 -1 -3 8 -21 24 -41 36 -28 16 -33 24 -27 43 4 12 11 24 17 26
5 2 19 13 30 24 24 24 14 32 -48 41 -22 3 -34 3 -27 0 10 -5 9 -10 -5 -21 -13
-10 -15 -16 -5 -19 6 -3 12 -13 12 -22 0 -13 -2 -14 -9 -4 -6 10 -10 10 -21
-3 -7 -8 -8 -15 -3 -15 5 0 18 -7 29 -16 10 -8 14 -13 7 -10 -18 9 -43 -4 -43
-24 0 -10 7 -21 16 -24 9 -3 14 -12 11 -20 -10 -26 13 -35 52 -20 32 13 34 13
18 0 -27 -21 -18 -52 15 -48 21 3 28 -2 36 -27 6 -17 17 -31 25 -31 24 0 8
-46 -21 -60 -22 -9 -28 -9 -38 4 -6 9 -14 16 -17 16 -11 0 0 -49 14 -66 8 -9
13 -25 11 -36 -3 -17 1 -20 38 -22 9 -1 17 -16 21 -40 6 -35 5 -38 -7 -21 -8
10 -14 22 -14 27 0 4 -5 8 -10 8 -23 0 -20 -33 8 -97 40 -90 46 -106 43 -120
-1 -7 3 -13 9 -13 6 0 8 -4 5 -10 -3 -5 1 -20 10 -33 15 -23 14 -25 -5 -30
-28 -7 -43 -48 -23 -64 22 -17 8 -45 -19 -41 -17 2 -22 9 -20 26 2 12 0 22 -5
22 -5 0 -13 -10 -18 -22 -7 -16 -19 -23 -40 -24 -16 0 -32 3 -35 7 -3 5 -21
10 -40 11 -36 3 -89 45 -83 65 2 6 -5 14 -16 18 -11 3 -29 17 -40 31 -11 14
-25 22 -34 19 -10 -4 -16 3 -20 22 -5 22 -19 34 -69 59 -80 41 -117 49 -124
30 -3 -8 -12 -17 -20 -20 -9 -3 -12 -1 -9 4 3 6 1 10 -4 10 -6 0 -11 -5 -11
-11 0 -6 -9 -9 -20 -6 -17 4 -18 2 -9 -15 6 -12 7 -18 1 -14 -5 3 -12 -3 -15
-14 -3 -11 -1 -20 4 -20 5 0 9 5 9 10 0 6 5 9 12 8 7 -2 12 4 13 12 0 8 5 15
10 15 6 0 10 -8 9 -18 -1 -15 27 -24 60 -18 5 1 6 -4 3 -12 -3 -9 2 -13 16
-12 23 2 57 -23 57 -42 0 -6 8 -17 18 -23 16 -11 16 -11 0 -6 -10 3 -18 1 -18
-3 0 -5 -3 -16 -6 -25 -4 -11 -1 -16 10 -16 20 0 21 -16 0 -24 -8 -3 -12 -2
-9 4 3 6 -1 13 -9 16 -9 3 -13 11 -9 18 4 6 -2 4 -12 -4 -17 -14 -18 -13 -12
3 5 12 1 17 -13 17 -11 0 -20 -5 -20 -11 0 -5 5 -7 10 -4 6 3 10 -1 10 -11 0
-22 29 -43 58 -44 23 0 28 -15 14 -38 -10 -15 -62 0 -62 19 0 6 -11 20 -25 31
-18 14 -24 26 -20 39 5 15 3 17 -10 13 -10 -4 -15 -14 -12 -25 3 -10 0 -20 -7
-23 -6 -2 -3 -5 8 -5 12 -1 16 -6 13 -15 -4 -11 -1 -13 11 -9 14 5 15 3 5 -7
-8 -9 -17 -10 -25 -4 -14 11 -89 11 -106 0 -15 -9 -4 -36 15 -36 8 0 11 -5 7
-12 -5 -7 -3 -8 5 -4 7 5 10 11 7 14 -6 6 12 32 23 32 9 0 0 -83 -11 -97 -6
-7 -4 -13 4 -16 10 -4 8 -10 -7 -22 -12 -10 -21 -12 -23 -5 -3 8 -8 7 -18 -1
-10 -8 -18 -9 -27 0 -8 6 -17 8 -20 4 -4 -3 -7 3 -7 15 0 13 6 22 15 22 8 0
15 5 15 11 0 5 4 8 9 5 5 -3 11 1 15 9 3 8 1 15 -4 15 -6 0 -9 5 -8 11 2 6
-10 13 -25 16 -20 3 -27 0 -21 -8 4 -7 2 -10 -7 -7 -8 3 -13 11 -11 18 2 8 -3
10 -13 6 -9 -3 -24 3 -35 14 -11 11 -21 16 -24 11 -6 -9 -42 -8 -51 1 -8 8
-45 -2 -45 -13 0 -4 5 -11 12 -15 6 -4 8 -3 5 3 -4 6 0 14 8 17 9 3 18 -1 21
-9 4 -8 12 -15 20 -15 30 0 80 -34 96 -65 19 -38 12 -45 -47 -45 -37 0 -85
-15 -85 -27 0 -5 244 -9 543 -10 482 -2 719 -7 736 -17 3 -2 17 1 31 7 24 10
23 11 -19 16 -38 5 -46 10 -52 34 -7 25 -5 27 23 27 l31 0 -34 23 c-44 29
-108 50 -140 45 -20 -4 -17 -6 19 -17 45 -12 63 -34 44 -53 -8 -8 -19 -4 -41
13 -16 13 -48 35 -70 49 -32 19 -41 30 -41 52 0 18 5 28 15 28 13 0 19 -12 16
-32 0 -4 9 -13 21 -19 18 -10 20 -9 15 5 -3 8 -2 18 3 21 6 4 7 17 4 30 -6 24
-5 24 22 11 45 -22 74 -28 74 -17 0 5 -4 13 -10 16 -17 10 -11 36 7 33 23 -4
30 30 8 38 -28 11 -65 54 -65 74 0 35 26 21 81 -42 52 -60 61 -75 88 -141 6
-16 20 -31 30 -34 21 -5 35 -40 20 -49 -5 -3 -7 -9 -4 -14 3 -5 -5 -10 -17
-12 -22 -3 -21 -4 7 -18 17 -9 31 -25 33 -37 4 -26 44 -35 151 -31 l74 2 -33
27 c-18 16 -36 26 -40 24 -4 -2 -7 2 -7 10 0 8 5 15 11 16 6 0 1 4 -11 9 -27
11 -31 40 -5 40 22 0 82 -36 82 -50 0 -5 -4 -10 -10 -10 -15 0 -12 -17 4 -23
8 -3 24 -3 35 0 21 5 21 7 5 31 -13 20 -14 26 -3 33 8 5 22 9 31 9 24 0 48 11
48 21 0 5 -17 9 -37 9 -55 1 -123 22 -162 49 -33 24 -33 24 -26 2 8 -25 -3
-28 -20 -4 -14 19 -37 9 -28 -12 8 -22 -9 -18 -35 9 -14 15 -19 27 -12 31 6 4
-16 33 -51 68 -33 34 -55 63 -49 65 11 4 21 -3 100 -62 53 -41 61 -42 77 -16
7 10 29 22 50 26 35 7 36 7 13 16 -33 12 -35 15 -20 33 16 19 44 20 37 1 -3
-8 1 -17 9 -20 9 -3 13 -10 10 -15 -3 -5 1 -11 9 -15 8 -3 15 -13 15 -21 0
-13 -6 -15 -28 -10 -21 4 -33 1 -43 -11 -12 -16 -12 -17 3 -11 25 9 136 -11
164 -30 l24 -15 0 53 c0 66 -11 89 -34 70 -18 -15 -56 -5 -56 15 0 8 -4 13
-10 9 -5 -3 -7 -12 -3 -20 3 -8 0 -15 -7 -15 -6 0 -8 5 -5 10 3 6 1 10 -4 10
-6 0 -11 6 -11 13 0 6 -12 20 -26 30 -19 14 -28 16 -39 7 -10 -8 -15 -8 -20 0
-4 6 -4 14 -1 17 3 3 -1 11 -9 17 -13 9 -13 15 -3 38 7 16 16 28 21 28 4 0 7
7 7 15 0 8 5 15 10 15 6 0 10 5 10 11 0 5 -4 8 -9 4 -5 -3 -12 -1 -16 4 -3 6
6 18 21 27 20 14 25 24 22 46 -3 15 -1 28 4 28 5 0 6 5 3 11 -4 6 -13 8 -19 6
-7 -3 -13 1 -13 7 0 7 13 13 29 14 16 0 26 -3 23 -9 -3 -5 1 -6 9 -3 9 3 16 1
16 -6 0 -6 5 -8 10 -5 6 3 10 -1 10 -9 0 -9 -4 -16 -10 -16 -6 0 -6 -9 0 -24
7 -18 4 -29 -11 -45 -11 -11 -17 -21 -13 -21 3 0 1 -6 -5 -13 -6 -8 -8 -17 -4
-20 3 -4 2 -7 -3 -7 -5 0 -9 -11 -9 -24 0 -13 3 -22 6 -20 3 2 12 -8 19 -21 7
-14 19 -25 25 -25 18 0 38 -27 26 -34 -5 -3 -12 -1 -14 4 -3 6 -4 5 -3 -2 2
-12 64 -30 77 -22 14 8 6 94 -8 94 -7 0 -12 -5 -11 -12 5 -23 -32 -19 -58 5
-22 21 -26 31 -20 59 3 18 15 39 27 46 18 11 24 11 41 -4 16 -15 21 -16 28 -4
13 21 -11 50 -41 50 -15 0 -29 7 -33 15 -5 13 -2 14 15 4 26 -14 37 -4 22 20
-14 22 -8 31 20 31 16 0 17 3 7 15 -9 11 -9 15 -1 15 9 0 10 61 6 243 -3 133
-8 328 -10 434 -2 105 -7 213 -10 240 -7 46 -48 123 -66 123 -5 0 -9 6 -9 14
0 7 -7 19 -15 26 -13 11 -75 131 -75 147 0 20 -53 112 -77 134 -66 60 -205
101 -298 89z m191 -62 c3 -10 13 -18 23 -18 10 0 24 -7 31 -15 7 -8 17 -15 22
-15 5 0 17 -7 25 -16 14 -13 14 -17 2 -26 -10 -7 -8 -8 9 -3 18 5 22 2 22 -14
0 -12 5 -21 10 -21 7 0 7 -7 0 -20 -6 -11 -7 -19 -3 -18 4 2 8 1 8 -2 0 -3 8
-16 18 -30 22 -32 22 -38 -5 -43 -19 -4 -18 -4 5 -6 16 0 26 -5 22 -11 -3 -5
-2 -10 4 -10 10 0 27 -38 23 -52 -1 -5 5 -8 13 -8 9 0 22 -15 30 -32 8 -18 14
-29 15 -24 0 6 6 1 14 -9 8 -11 12 -23 10 -27 -3 -5 -1 -8 4 -8 15 0 10 -34
-7 -48 -9 -8 -11 -11 -5 -8 14 7 38 -19 30 -33 -4 -5 -2 -12 4 -16 6 -4 8 -11
4 -16 -3 -5 -10 -6 -16 -3 -5 4 -2 -5 7 -20 12 -18 14 -26 5 -26 -10 0 -10 -3
0 -15 7 -8 8 -15 4 -15 -5 0 -15 -10 -23 -22 -10 -18 -11 -20 0 -10 7 6 18 12
25 12 15 0 8 -61 -9 -72 -6 -4 -7 -8 -2 -8 12 0 13 -50 2 -67 -5 -7 -4 -13 2
-13 5 0 9 -9 8 -20 -1 -11 -6 -20 -12 -20 -6 0 -6 -3 1 -8 21 -13 21 -37 0
-54 -17 -14 -17 -17 -3 -12 9 3 17 2 18 -2 4 -48 3 -62 -4 -57 -5 3 -6 -5 -2
-17 5 -17 4 -21 -6 -16 -8 4 -6 1 3 -7 10 -8 14 -17 10 -21 -9 -10 -9 -49 1
-57 4 -3 3 -17 -2 -31 -7 -19 -6 -31 6 -48 9 -13 12 -21 6 -17 -6 4 -9 -9 -9
-33 0 -22 4 -40 9 -40 5 0 4 -7 -3 -15 -8 -9 -10 -28 -5 -51 4 -25 3 -34 -5
-29 -5 3 -8 11 -5 16 6 9 -8 13 -32 10 -7 -1 -13 3 -13 9 0 15 -16 12 -33 -5
-13 -13 -16 -13 -21 0 -3 8 -1 15 5 15 5 0 4 6 -3 14 -11 12 -14 12 -21 0 -5
-8 -14 -11 -20 -7 -7 4 3 -9 22 -28 30 -29 32 -34 16 -38 -11 -2 -27 6 -36 17
-9 12 -19 18 -23 15 -3 -4 -6 0 -6 7 0 11 -3 11 -11 3 -9 -9 -8 -16 5 -28 9
-9 13 -22 9 -28 -5 -8 -8 -8 -11 1 -2 7 -10 12 -18 12 -10 0 -12 5 -7 13 4 6
-5 4 -20 -5 -25 -17 -47 -24 -34 -12 3 3 -8 20 -25 36 -27 27 -29 32 -15 40
10 5 21 7 26 4 5 -3 11 1 15 9 3 8 11 15 18 15 8 0 28 13 46 29 31 29 33 29
62 14 25 -12 34 -12 46 -2 12 9 20 9 42 0 27 -13 27 -13 7 6 -11 11 -30 19
-42 17 -16 -1 -20 2 -16 13 4 9 13 13 26 9 18 -4 19 -3 5 10 -16 17 -48 9 -48
-12 0 -8 -7 -14 -15 -14 -24 0 -17 30 9 40 13 5 28 15 32 22 6 10 5 10 -7 1
-13 -11 -83 -12 -94 -1 -3 3 1 17 8 31 8 15 16 25 19 22 2 -3 5 9 5 25 0 17
-1 30 -3 30 -21 0 -33 -16 -28 -36 l6 -23 -47 15 c-47 17 -70 47 -62 83 4 24
48 15 72 -14 12 -14 27 -25 34 -25 10 0 11 3 2 13 -8 11 -7 14 7 14 9 0 20 -5
24 -11 5 -7 8 -4 8 7 0 10 -8 17 -20 17 -11 0 -20 6 -20 13 0 17 -38 39 -52
31 -7 -5 -8 -2 -3 6 6 10 4 12 -8 7 -10 -4 -28 -2 -42 3 -23 9 -24 8 -15 -15
6 -16 6 -25 -1 -25 -16 0 -22 30 -11 54 6 14 6 28 0 39 -10 18 -4 23 37 31 68
12 116 50 99 78 -5 7 -3 8 5 3 7 -4 11 -17 9 -29 -4 -19 -1 -21 23 -18 22 3
29 -1 37 -25 6 -15 11 -22 11 -15 1 6 8 12 16 12 8 0 15 5 15 11 0 6 -7 8 -16
5 -8 -3 -12 -2 -9 4 3 6 1 10 -4 10 -6 0 -11 8 -11 18 0 14 -2 15 -10 2 -7
-10 -10 -11 -10 -2 0 7 -12 18 -27 24 l-28 11 25 7 c23 7 23 8 3 9 -12 1 -24
-3 -27 -8 -4 -5 -22 -5 -43 0 -52 12 -53 11 -53 -9 0 -10 -6 -27 -14 -38 -14
-18 -15 -18 -25 6 -5 14 -10 19 -10 13 -1 -7 -6 -13 -12 -13 -5 0 -7 5 -4 10
3 6 -1 10 -9 10 -10 0 -13 6 -10 15 7 17 34 20 52 5 6 -6 10 -7 7 -3 -3 3 2
14 11 24 12 13 12 19 3 25 -7 4 -10 3 -6 -3 4 -6 -5 -14 -19 -17 -32 -8 -41
-1 -24 19 7 8 10 15 6 15 -3 0 3 17 14 38 11 20 25 37 32 37 6 0 13 6 16 13 3
11 0 12 -17 3 -26 -14 -28 0 -2 23 16 15 19 15 24 1 8 -19 34 -20 34 0 0 8 -9
15 -19 15 -12 0 -18 8 -19 23 -1 21 -1 21 -9 -3 -4 -14 -9 -20 -9 -15 -1 6 -6
2 -12 -7 -12 -22 -33 -24 -25 -3 3 9 0 15 -9 15 -9 0 -12 -6 -8 -17 5 -14 1
-13 -24 5 -17 12 -36 22 -43 22 -7 0 -10 7 -6 16 4 11 2 15 -6 11 -7 -2 -21 6
-30 18 -17 23 -17 23 22 33 22 5 40 6 40 2 0 -5 -4 -10 -9 -12 -14 -5 7 -48
23 -48 10 0 13 -6 9 -17 -3 -10 -3 -15 1 -11 4 3 8 12 10 20 1 7 5 19 10 26 7
12 4 12 -14 2 -27 -15 -33 -9 -24 24 4 18 13 26 28 26 14 0 17 3 9 8 -9 6 -8
11 6 22 11 7 17 19 14 26 -3 8 2 17 11 20 9 3 16 14 16 24 0 17 3 17 45 4 25
-7 45 -9 45 -4 0 4 10 6 23 3 12 -3 19 -2 14 2 -4 5 -26 9 -49 9 -46 1 -60 19
-28 36 20 11 48 3 49 -14 0 -6 7 -11 15 -12 9 -1 12 5 9 17 -3 10 -10 19 -15
19 -6 0 -8 8 -6 18 6 21 -16 44 -40 41 -28 -2 -38 1 -25 9 7 4 14 17 16 27 1
11 7 26 11 34 7 11 5 13 -6 8 -11 -4 -20 4 -29 26 -8 18 -13 35 -11 40 1 4 -1
6 -5 6 -18 -3 -33 2 -33 10 0 5 6 11 13 14 6 2 3 3 -8 1 -20 -3 -52 31 -47 49
1 4 -7 7 -18 7 -12 0 -17 5 -14 13 7 19 43 15 50 -5z m-103 -540 c17 -27 17
-28 0 -29 -16 0 -15 -2 2 -9 18 -8 18 -9 2 -9 -21 -1 -18 -23 4 -29 11 -3 11
-1 -1 8 -13 10 -13 11 0 9 35 -3 44 1 32 13 -16 16 -15 28 3 28 9 0 19 -8 23
-18 4 -10 17 -18 31 -18 14 0 25 -6 26 -15 2 -13 -5 -14 -44 -8 -53 8 -67 1
-47 -27 8 -10 18 -15 22 -11 5 4 2 12 -6 17 -8 6 -10 10 -4 10 5 0 16 -6 23
-12 11 -10 13 -10 7 0 -4 6 -2 12 3 12 6 0 11 -6 11 -12 0 -10 2 -10 9 0 6 10
10 10 20 -2 15 -18 -1 -30 -29 -21 -11 4 -20 2 -20 -4 0 -6 9 -11 20 -11 13 0
18 -5 14 -15 -4 -8 -18 -15 -33 -15 -20 0 -23 2 -11 10 13 9 13 10 0 11 -8 1
-22 1 -32 0 -9 -1 -19 3 -23 9 -3 5 1 10 9 10 14 0 14 3 4 20 -7 11 -17 20
-23 20 -26 1 -34 16 -26 52 6 27 5 35 -4 32 -7 -3 -11 3 -9 18 1 13 3 27 3 31
1 11 21 -10 44 -45z m-97 27 c14 -13 12 -15 -15 -15 -21 0 -31 5 -31 15 0 8 7
15 16 15 8 0 22 -7 30 -15z m-93 -29 c-3 -5 -1 -6 6 -2 6 4 9 11 6 16 -3 5 6
3 21 -5 15 -7 31 -20 35 -27 7 -11 9 -11 9 0 0 8 5 10 12 5 7 -4 22 -7 33 -8
12 0 21 -8 22 -20 2 -11 0 -14 -3 -7 -8 18 -22 15 -20 -5 0 -10 10 -23 21 -30
20 -12 20 -12 -1 -13 -12 0 -24 -7 -28 -15 -3 -9 -12 -12 -23 -8 -15 5 -15 3
2 -10 11 -9 21 -12 23 -7 2 5 10 6 18 3 8 -3 14 1 14 11 0 9 4 16 10 16 5 0 6
-7 3 -17 -4 -11 -3 -14 5 -9 17 10 15 -5 -2 -18 -20 -15 -10 -65 12 -61 10 2
23 4 31 4 11 1 10 6 -4 21 -10 11 -15 23 -10 28 4 4 10 1 12 -5 3 -7 16 -13
29 -13 14 0 22 -4 19 -10 -3 -5 -1 -10 5 -10 7 0 9 -7 6 -16 -4 -9 -1 -23 6
-32 11 -13 10 -14 -2 -10 -8 3 -25 1 -37 -3 -28 -10 -29 -2 -3 26 l20 22 -29
-5 c-26 -4 -28 -6 -21 -31 7 -24 4 -29 -21 -38 -34 -13 -36 -10 -9 15 20 19
18 58 -2 46 -10 -7 -48 29 -48 45 0 5 6 12 13 14 12 6 -16 11 -43 8 -13 -2
-13 -1 0 8 12 9 11 11 -7 11 -12 0 -28 3 -37 6 -11 4 -16 1 -16 -11 0 -11 5
-15 14 -12 8 3 20 -1 26 -9 10 -11 9 -14 -6 -14 -15 0 -16 -2 -5 -9 10 -6 10
-10 1 -16 -12 -7 -47 33 -42 48 1 5 -2 6 -8 2 -5 -3 -10 -2 -10 4 0 5 3 11 8
14 4 2 1 2 -7 0 -18 -5 -81 16 -81 27 0 4 6 13 14 19 18 15 27 49 15 57 -5 3
-9 12 -9 20 0 9 5 12 12 8 8 -5 9 -2 5 9 -4 11 -1 17 7 17 8 0 17 -6 19 -12 3
-7 6 -4 6 7 1 16 3 17 10 5 6 -8 7 -18 4 -24z m-17 -146 c1 0 4 -9 7 -19 3
-13 -1 -21 -12 -24 -12 -4 -11 -5 4 -6 11 -1 29 -9 40 -17 19 -15 18 -15 -17
-11 -21 3 -36 2 -34 -2 8 -12 -21 -29 -35 -20 -8 5 -9 9 -4 9 13 0 14 45 2 57
-5 4 -8 4 -7 -2 6 -26 -2 -45 -17 -45 -13 0 -14 3 -5 12 15 15 16 38 1 38 -5
0 -8 -4 -5 -9 4 -5 -3 -7 -14 -4 -11 3 -20 7 -20 9 0 10 39 42 44 37 3 -4 6
-1 6 5 0 7 10 8 32 1 18 -5 33 -9 34 -9z m134 -84 c-6 -6 -2 -15 8 -23 9 -8
11 -12 5 -8 -7 3 -13 1 -13 -6 0 -8 -4 -8 -15 1 -9 7 -14 19 -11 26 3 7 1 16
-4 19 -6 4 -10 13 -10 21 0 12 4 12 24 -3 15 -11 21 -22 16 -27z m314 -10 c-3
-8 -12 -12 -20 -9 -10 4 -12 0 -8 -11 4 -11 1 -16 -10 -16 -9 0 -16 -4 -16
-10 0 -5 -7 -10 -15 -10 -8 0 -15 5 -15 10 0 6 5 10 10 10 6 0 10 7 10 15 0 9
10 20 23 25 33 13 47 12 41 -4z m-154 -40 c8 -6 15 -20 16 -31 1 -11 3 -26 5
-34 3 -12 -9 -15 -54 -16 l-58 -1 6 35 c10 51 49 73 85 47z m-162 -8 c16 -16
15 -31 -2 -25 -7 3 -19 0 -25 -6 -8 -8 -11 -6 -11 9 0 34 17 43 38 22z m-104
-55 c-1 -22 -5 -27 -20 -25 -30 6 -31 12 -5 33 13 10 24 19 25 19 1 0 1 -12 0
-27z m56 17 c0 -5 -5 -10 -11 -10 -8 0 -8 -4 -1 -12 7 -9 5 -17 -6 -28 -14
-13 -15 -12 -10 2 4 10 1 19 -9 22 -12 5 -13 9 -3 21 14 17 40 20 40 5z m90 5
c0 -2 -12 -11 -27 -20 -23 -13 -24 -15 -5 -10 12 4 22 2 22 -3 0 -5 11 -14 25
-20 18 -8 23 -16 18 -29 -12 -32 -28 -34 -34 -5 -3 15 -11 26 -18 24 -14 -3
-40 26 -41 45 0 11 18 19 48 22 6 0 12 -1 12 -4z m-185 -55 c3 -5 -1 -10 -9
-10 -9 0 -16 -7 -16 -15 0 -14 3 -14 30 0 33 17 38 14 14 -9 -21 -22 -40 -20
-64 7 l-21 22 23 7 c34 9 36 9 43 -2z m121 -12 c-4 7 -2 12 4 12 7 0 9 -7 6
-16 -9 -24 25 -59 56 -58 15 1 25 -2 23 -6 -3 -4 -16 -7 -30 -7 -34 0 -40 -8
-28 -36 8 -16 7 -25 -3 -35 -8 -7 -14 -8 -14 -2 0 5 -7 10 -15 10 -8 0 -12 -6
-9 -14 4 -11 0 -13 -15 -9 -21 5 -29 23 -11 23 18 0 11 19 -16 44 -16 15 -24
29 -19 36 6 9 12 5 22 -14 10 -18 20 -26 30 -22 11 4 13 2 9 -9 -3 -9 0 -15 9
-15 11 0 12 6 5 24 -6 17 -5 26 2 28 5 2 -1 18 -16 34 -26 32 -25 53 2 31 13
-9 14 -9 8 1z m-51 -18 c4 -6 11 -8 16 -5 5 4 9 -1 9 -9 0 -19 -11 -20 -29 -3
-10 10 -14 8 -22 -6 -6 -9 -15 -15 -20 -11 -6 4 -4 13 7 25 19 21 30 24 39 9z
m205 -30 c-6 -11 -8 -30 -5 -40 5 -16 3 -19 -12 -14 -10 3 -25 8 -33 11 -13 4
-12 6 3 14 12 7 15 17 11 36 -6 23 -4 25 15 20 12 -3 21 0 22 6 0 9 2 9 5 0 3
-7 0 -21 -6 -33z m45 3 c9 -21 14 -55 7 -48 -3 3 -13 -2 -22 -10 -14 -13 -16
-12 -16 5 0 11 9 23 19 26 18 6 18 7 1 25 -9 10 -12 19 -7 19 6 0 14 -8 18
-17z m-85 -93 c9 -5 19 -5 27 2 7 6 25 7 40 3 43 -10 113 -54 113 -70 0 -8 7
-15 15 -15 22 0 38 -46 25 -71 -10 -19 -22 -23 -48 -20 -8 1 -16 -7 -19 -17
-4 -16 -10 -18 -31 -13 -28 8 -37 35 -19 58 13 17 -11 38 -48 41 -36 3 -55 19
-32 28 34 13 17 29 -29 29 -25 0 -48 3 -51 8 -2 4 1 7 7 7 6 0 8 5 5 10 -15
24 16 38 45 20z m-175 -30 c-4 -6 -10 -8 -15 -5 -4 3 -15 2 -24 -1 -18 -7 -22
-44 -5 -44 8 0 8 -4 0 -14 -7 -8 -20 -12 -31 -9 -27 7 -21 51 10 69 29 16 74
19 65 4z m91 -44 c37 -1 39 -3 39 -33 1 -33 -4 -37 -40 -33 -18 2 -17 -1 7
-23 22 -21 63 -34 111 -37 4 0 7 -9 7 -19 0 -11 4 -21 10 -23 6 -2 6 -9 0 -17
-6 -11 -12 -12 -22 -3 -16 13 -57 13 -75 0 -23 -18 -74 -11 -129 17 -46 23
-57 26 -64 14 -5 -7 -12 -10 -16 -7 -10 11 4 40 16 33 6 -3 13 2 16 12 3 10
10 26 15 35 13 25 12 28 -13 29 l-23 0 24 10 c18 7 22 14 17 34 -6 23 -4 25
29 25 21 0 35 5 36 13 0 6 4 3 8 -7 6 -15 18 -20 47 -20z m-254 -20 c13 -18 9
-25 -12 -23 -11 1 -20 7 -20 14 0 7 -4 13 -10 13 -5 0 -10 4 -10 9 0 12 43 1
52 -13z m62 -31 c-4 -10 0 -15 14 -15 22 0 39 -16 24 -22 -5 -1 -15 -16 -23
-33 -9 -17 -22 -29 -32 -29 -9 1 -17 -2 -17 -7 0 -5 -9 -9 -20 -9 -11 0 -20 4
-20 9 0 13 26 32 34 24 4 -4 4 0 0 10 -3 9 -10 14 -15 11 -5 -3 -9 6 -9 20 0
16 7 27 20 31 11 4 18 11 15 16 -4 5 3 9 14 9 14 0 19 -5 15 -15z m312 -24
c26 -20 22 -31 -11 -31 -24 0 -45 17 -45 37 0 19 28 16 56 -6z m45 -38 c0 -5
2 -15 4 -24 2 -12 -3 -15 -16 -12 -19 5 -25 24 -12 36 9 9 23 9 24 0z m-401
-78 c0 -8 -7 -15 -15 -15 -22 0 -18 -19 8 -42 l22 -20 -22 5 c-12 3 -24 0 -26
-7 -4 -9 -47 28 -47 41 0 11 31 34 39 29 5 -3 14 1 21 9 16 19 20 19 20 0z
m70 -27 c0 -5 -6 -8 -14 -8 -27 0 -25 -16 4 -51 31 -36 36 -49 20 -49 -5 0 -9
5 -7 11 4 21 -20 20 -26 -1 -3 -11 -1 -20 4 -20 5 0 9 -5 9 -11 0 -5 -5 -7
-11 -3 -7 4 -6 -3 2 -17 15 -28 19 -59 7 -59 -14 0 -53 44 -50 58 2 6 -9 17
-23 22 -32 12 -22 34 11 26 14 -4 24 -2 24 4 0 5 -12 10 -27 10 l-28 1 32 14
c30 13 32 16 23 40 -14 38 -13 58 5 52 8 -4 17 -1 21 5 6 10 23 -7 24 -24z
m55 4 c4 -15 15 -19 50 -17 25 0 45 -3 45 -9 0 -5 8 -2 18 7 21 20 32 22 32 6
0 -5 -5 -7 -12 -3 -7 4 -8 3 -4 -4 12 -19 26 -14 27 11 0 12 3 17 5 11 3 -6
18 -10 34 -8 22 3 30 -1 30 -12 0 -8 -4 -12 -10 -9 -5 3 -10 -1 -10 -9 0 -14
-11 -20 -32 -17 -4 0 -4 -7 -1 -16 4 -11 3 -14 -5 -9 -7 4 -12 2 -12 -3 0 -6
-11 -11 -24 -11 -51 0 -73 -29 -45 -57 8 -8 8 -13 0 -17 -6 -4 -11 -2 -11 3 0
6 -4 11 -10 11 -17 0 0 -25 26 -37 25 -12 26 -11 19 15 -3 15 -11 29 -16 30
-17 6 2 22 26 22 21 0 22 -3 15 -36 -11 -47 -31 -94 -40 -94 -3 0 -7 -7 -7
-15 0 -8 9 -15 19 -15 25 0 23 -20 -2 -21 -11 -1 -26 -2 -32 -3 -7 -1 -12 5
-11 12 2 6 -6 12 -16 12 -10 0 -21 7 -25 15 -4 12 -2 13 14 3 15 -10 22 -10
32 0 9 9 6 12 -18 13 -16 1 -35 1 -41 0 -7 -1 -13 5 -13 13 0 9 -7 12 -20 9
-14 -4 -20 0 -20 11 0 9 8 16 21 16 11 0 18 4 14 10 -3 5 -13 6 -22 3 -11 -4
-14 -2 -11 8 3 8 11 14 19 15 42 3 44 4 30 13 -7 5 -22 6 -32 4 -10 -3 -19 0
-19 6 0 6 11 13 25 17 29 7 30 12 10 34 -17 19 -10 50 10 50 14 0 29 -16 38
-43 4 -11 3 -16 -3 -12 -6 3 -13 -1 -16 -9 -7 -19 16 -44 35 -38 10 3 7 9 -10
19 -13 8 -16 12 -7 9 20 -6 29 13 16 37 -6 12 -5 23 4 34 11 14 10 15 -9 9
-15 -5 -30 1 -54 24 -24 21 -29 30 -17 30 9 0 19 -8 23 -18z m276 -8 c11 -14
10 -15 -11 -12 -13 1 -25 9 -28 16 -5 17 23 15 39 -4z m305 0 c38 -18 47 -40
12 -30 -13 4 -30 8 -38 10 -15 3 -28 36 -15 36 4 0 22 -7 41 -16z m-599 -20
c2 -6 -7 -14 -21 -16 -31 -6 -39 0 -23 18 14 16 39 14 44 -2z m362 -18 c7 -8
22 -11 38 -8 37 7 95 -26 91 -52 -4 -27 -36 -33 -53 -9 -7 10 -17 14 -21 10
-5 -4 -3 -12 4 -16 7 -4 10 -15 6 -24 -4 -11 0 -19 10 -23 33 -13 13 -74 -24
-74 -16 0 -47 66 -36 77 9 9 -21 33 -41 33 -20 0 -43 -18 -43 -33 0 -5 6 -5
13 1 8 7 18 7 27 2 12 -7 9 -11 -10 -18 -14 -5 -27 -6 -30 -2 -3 4 -15 12 -27
19 -13 6 -23 20 -23 30 0 10 -9 21 -20 24 -11 3 -20 12 -20 21 0 10 6 13 15
10 8 -4 15 -2 15 3 0 5 14 10 30 10 17 0 38 7 48 16 20 21 36 22 51 3z m-168
-58 c1 -7 1 -17 0 -22 -1 -4 4 -14 10 -22 9 -11 8 -14 -5 -14 -9 0 -16 6 -16
13 0 6 -3 22 -6 35 -4 13 -2 22 5 22 6 0 12 -6 12 -12z m-315 -110 c-6 -4 -15
0 -20 9 -5 10 -4 18 5 24 9 5 16 3 20 -9 4 -9 1 -20 -5 -24z m389 7 c0 -46 12
-58 54 -51 20 4 31 3 25 -1 -8 -6 -8 -16 1 -36 10 -25 13 -26 24 -13 18 22 37
20 61 -6 27 -29 12 -44 -29 -30 -28 10 -31 9 -31 -9 0 -20 -24 -26 -35 -9 -4
6 -14 8 -24 5 -12 -3 -34 11 -69 46 -57 56 -57 58 -40 106 10 28 17 33 38 31
20 -2 25 -8 25 -33z m-307 -75 c6 0 12 7 12 15 0 23 11 18 54 -20 l39 -34 -27
-12 c-30 -14 -31 -17 -10 -47 8 -12 15 -32 14 -45 -3 -37 -1 -41 19 -23 15 14
17 24 11 46 -12 43 14 46 36 4 10 -19 22 -34 26 -34 12 0 -3 -28 -18 -34 -9
-3 -12 -1 -9 4 8 13 -21 13 -45 0 -13 -7 -26 -7 -37 -1 -10 5 -25 12 -34 15
-25 7 -68 68 -94 133 -22 53 -23 59 -8 75 15 17 17 17 37 -12 12 -16 27 -30
34 -30z m216 9 c-3 -5 -14 -4 -25 1 -20 11 -24 22 -12 33 9 9 44 -23 37 -34z
m-788 -8 c-7 -11 18 -33 27 -24 4 3 7 2 7 -3 0 -6 -5 -15 -12 -22 -9 -9 -18
-6 -40 15 -35 33 -35 43 -2 43 14 0 23 -4 20 -9z m804 -31 c0 -5 6 -10 14 -10
18 0 30 -17 17 -24 -5 -4 -16 1 -24 9 -9 8 -23 15 -31 15 -9 0 -16 5 -16 10 0
6 9 10 20 10 11 0 20 -4 20 -10z m-723 -56 c48 -19 61 -41 36 -60 -16 -11 -23
-8 -55 24 -57 54 -52 63 19 36z m980 -20 c0 -7 -11 -17 -24 -23 -16 -7 -23 -7
-23 0 0 6 -4 7 -10 4 -5 -3 -10 1 -10 9 0 14 17 21 51 22 9 0 16 -6 16 -12z
m-518 -52 c9 -10 24 -21 34 -25 13 -5 16 -15 13 -49 -2 -27 1 -47 10 -56 8 -7
11 -18 8 -24 -4 -7 -2 -8 4 -4 7 4 12 3 12 -3 0 -6 11 -13 25 -17 14 -3 25
-10 25 -15 0 -5 9 -9 21 -9 14 0 19 -5 16 -14 -4 -10 -1 -13 7 -10 8 3 17 0
22 -7 4 -8 3 -10 -4 -5 -7 4 -12 3 -12 -1 0 -5 -20 -8 -45 -8 -25 0 -45 2 -45
5 0 3 -37 5 -83 6 -45 0 -97 4 -116 8 -39 8 -101 62 -101 87 0 21 -24 31 -39
16 -8 -8 -11 -8 -11 1 0 17 30 29 73 30 21 1 42 4 47 7 5 3 11 2 14 -3 8 -14
67 -1 88 20 16 16 16 19 3 24 -11 5 -13 10 -5 19 5 6 7 15 4 18 -6 6 3 27 13
27 3 0 13 -8 22 -18z m-465 -14 c16 -19 17 -20 1 -15 -9 4 -23 7 -31 7 -8 0
-14 7 -14 15 0 22 23 18 44 -7z m92 -4 c20 -21 22 -29 13 -46 -8 -14 -8 -23 0
-31 8 -8 11 -8 11 0 0 7 12 11 28 9 15 -1 32 1 39 6 7 6 14 4 19 -3 4 -7 2
-15 -4 -17 -7 -2 -9 -8 -6 -14 3 -5 -2 -9 -12 -8 -11 1 -21 1 -24 0 -23 -9
-53 -4 -58 9 -3 9 -9 18 -12 21 -4 3 -10 15 -14 27 -6 18 -4 22 8 17 9 -3 16
-1 16 4 0 6 -9 13 -19 17 -21 6 -37 35 -19 35 6 0 21 -12 34 -26z m-66 -60 c0
-11 -5 -14 -16 -10 -9 3 -20 6 -25 6 -5 0 -9 5 -9 10 0 6 11 10 25 10 16 0 25
-6 25 -16z m-210 -29 c0 -8 7 -15 15 -15 19 0 19 0 -2 -41 -20 -40 -24 -59
-13 -59 8 0 28 21 29 30 0 3 3 13 6 22 10 25 33 1 27 -28 -2 -14 1 -22 10 -21
7 1 14 -2 15 -8 3 -12 -28 -13 -44 -1 -8 5 -13 4 -13 -3 0 -17 -33 -9 -48 12
-11 14 -11 24 -2 46 6 15 8 40 4 54 -4 17 -2 27 5 27 6 0 11 -7 11 -15z m230
7 c0 -4 -4 -13 -10 -20 -7 -9 -7 -9 2 -2 21 17 28 11 24 -20 -2 -21 0 -28 8
-22 15 13 46 11 46 -2 0 -6 -4 -17 -9 -25 -8 -13 -12 -13 -26 -1 -15 13 -17
12 -14 -4 5 -25 23 -31 41 -13 8 8 40 27 71 42 34 16 55 31 51 37 -4 7 -2 8 5
4 6 -4 9 -11 6 -16 -3 -4 2 -13 10 -20 18 -15 19 -37 3 -43 -7 -3 -3 -6 8 -6
12 -1 27 -8 34 -16 11 -13 8 -15 -20 -11 -23 2 -36 10 -41 25 -5 12 -4 21 1
21 6 0 10 7 10 15 0 9 -6 12 -16 8 -11 -4 -14 -13 -9 -31 6 -22 5 -23 -10 -8
-17 17 -55 22 -55 7 0 -5 9 -11 21 -14 23 -6 17 -27 -7 -27 -8 0 -13 4 -10 9
3 5 0 14 -8 20 -10 9 -15 8 -19 -3 -4 -11 -18 -14 -44 -12 -26 2 -42 -2 -50
-13 -11 -14 -12 -14 -13 2 0 9 5 17 11 17 6 0 9 7 5 15 -3 8 -2 15 3 15 5 0 9
11 9 25 0 14 -4 25 -9 25 -5 0 -9 -6 -9 -13 0 -7 -9 -18 -21 -25 -19 -12 -20
-11 -14 8 6 18 4 20 -18 14 -20 -4 -25 -2 -23 10 3 25 14 30 32 15 15 -12 17
-12 12 1 -3 8 2 20 11 27 19 14 31 16 31 5z m-113 -68 c-4 -23 -1 -34 9 -38 8
-3 14 -13 14 -23 0 -15 -4 -14 -23 7 -24 26 -41 59 -39 73 1 4 -4 7 -10 7 -8
0 -5 7 6 15 28 21 50 1 43 -41z m1036 41 c20 1 37 -2 37 -7 0 -4 -4 -8 -10 -8
-5 0 -9 -11 -8 -25 1 -14 6 -25 10 -25 4 0 6 -14 5 -30 -2 -28 -4 -30 -32 -25
-57 11 -73 25 -77 65 -2 22 1 36 6 33 5 -4 7 1 3 9 -7 20 2 31 17 20 6 -5 28
-8 49 -7z m-973 -67 c10 -12 16 -28 13 -35 -8 -20 -52 5 -53 30 0 5 4 5 10 2
6 -3 7 1 4 9 -9 23 5 19 26 -6z"/>
<path d="M2394 1698 c-4 -7 -3 -8 4 -4 7 4 12 2 12 -4 0 -6 7 -19 16 -28 11
-10 13 -17 5 -20 -6 -2 -11 -13 -10 -25 0 -21 1 -21 8 -3 4 11 16 23 27 27 17
7 17 8 2 8 -16 1 -22 11 -20 32 0 3 -8 10 -18 17 -14 9 -21 9 -26 0z"/>
<path d="M2387 1538 c-7 -4 -10 -8 -7 -9 3 0 18 -2 35 -4 16 -2 31 -9 33 -15
2 -5 8 -8 13 -4 5 3 9 -2 9 -11 0 -10 -5 -13 -12 -9 -7 5 -8 3 -3 -6 6 -10 11
-9 22 5 14 21 17 36 6 33 -5 -1 -21 2 -38 7 -26 7 -27 9 -10 16 16 6 15 7 -8
6 -15 -1 -33 -5 -40 -9z"/>
<path d="M2477 1459 c-16 -21 -25 -39 -22 -39 17 0 45 22 45 36 0 8 5 12 10 9
12 -7 13 5 2 22 -4 7 -17 -2 -35 -28z"/>
<path d="M2487 1315 c-6 -14 -10 -16 -19 -7 -13 13 -48 16 -48 4 0 -4 -15 -16
-32 -27 -55 -32 -62 -42 -37 -56 17 -9 20 -8 14 1 -6 10 -1 11 18 6 21 -5 25
-3 21 9 -6 15 5 20 35 15 11 -1 12 2 5 12 -5 8 -2 7 6 -2 20 -20 57 -23 64 -5
3 8 1 15 -4 15 -6 0 -10 -6 -10 -12 0 -7 -5 -5 -11 6 -9 14 -8 20 1 26 7 4 10
14 8 21 -3 9 -7 7 -11 -6z"/>
<path d="M1746 232 c-3 -5 10 -25 28 -45 23 -25 36 -33 43 -26 8 8 1 21 -22
45 -35 36 -41 39 -49 26z"/>
<path d="M2120 2017 c-28 -14 -38 -46 -19 -58 7 -4 26 -5 42 -2 18 4 32 1 37
-7 6 -10 14 -10 39 1 46 21 32 34 -36 34 -71 0 -91 11 -39 20 20 4 39 11 42
16 8 13 -37 11 -66 -4z"/>
<path d="M1939 1944 c-21 -12 -22 -13 -4 -13 11 1 31 4 45 8 24 7 24 7 4 13
-12 3 -32 -1 -45 -8z"/>
<path d="M2040 1855 c-8 -9 -7 -14 2 -17 15 -6 68 11 68 20 0 13 -60 9 -70 -3z"/>
<path d="M2045 1800 c-4 -6 10 -10 34 -10 23 0 41 -4 41 -10 0 -5 -11 -10 -24
-10 -14 0 -28 -4 -31 -10 -12 -19 42 -10 71 12 l28 22 -25 7 c-37 11 -87 10
-94 -1z"/>
<path d="M743 1699 c-49 -14 -54 -32 -7 -27 22 3 47 8 57 12 10 5 17 4 17 -2
0 -6 -10 -14 -22 -17 -13 -4 -66 -28 -118 -53 -52 -25 -112 -49 -134 -52 -35
-5 -40 -9 -57 -55 -24 -62 -24 -64 1 -58 11 3 17 10 13 16 -3 6 -1 7 5 3 7 -4
12 -1 12 8 0 8 -6 17 -12 20 -7 3 -1 4 14 2 15 -1 25 0 23 5 -3 4 -2 9 2 12 5
2 2 2 -4 1 -7 -2 -13 1 -13 6 0 11 11 13 34 4 8 -3 13 -11 10 -19 -6 -14 30
-27 52 -18 11 4 12 9 4 18 -7 8 2 7 24 -4 20 -9 34 -21 32 -27 -2 -6 0 -17 5
-25 7 -11 9 -9 9 9 0 23 25 31 33 10 4 -9 6 -7 6 3 1 9 11 24 23 35 12 10 18
14 15 7 -4 -6 -3 -15 3 -18 6 -4 10 -3 9 2 -4 25 2 35 22 30 12 -3 18 -3 15 0
-3 4 1 15 11 25 10 12 12 18 4 18 -7 0 -9 4 -6 10 3 6 -1 7 -9 4 -9 -4 -18 1
-22 10 -3 9 -12 16 -20 16 -8 0 -14 5 -14 11 0 6 9 8 23 4 15 -4 18 -4 8 3
-18 13 -5 32 20 32 11 0 18 4 14 9 -3 5 0 13 7 17 7 4 10 4 6 -1 -5 -5 6 -17
24 -28 25 -15 28 -21 17 -28 -9 -5 -10 -9 -2 -9 6 0 15 5 19 11 4 8 9 7 15 -2
7 -11 9 -11 9 -1 0 21 38 -9 45 -35 3 -13 12 -23 21 -23 9 0 12 -5 8 -12 -4
-7 -3 -8 5 -4 6 4 18 0 27 -8 8 -9 11 -16 5 -16 -6 0 -3 -8 7 -18 9 -10 23
-17 29 -14 7 2 20 -3 28 -12 15 -15 15 -16 -6 -14 -12 2 -24 -3 -27 -11 -3
-10 0 -11 9 -5 12 7 12 5 0 -9 -7 -9 -22 -17 -31 -17 -10 0 -20 -5 -22 -12 -2
-6 -25 -13 -51 -14 -38 -3 -45 0 -40 12 5 13 7 13 14 2 6 -9 9 -9 9 -1 0 17
-23 29 -28 15 -2 -7 -8 -12 -13 -12 -6 0 -7 5 -3 12 4 6 3 8 -3 5 -6 -4 -16 0
-23 8 -7 8 -22 15 -34 16 -20 0 -20 1 -1 9 14 5 7 7 -23 5 -24 -1 -46 -5 -49
-9 -3 -3 -13 0 -21 7 -13 10 -15 9 -9 -5 4 -11 2 -18 -6 -18 -19 -1 -59 -38
-52 -50 3 -5 -3 -10 -14 -10 -12 0 -21 -6 -21 -14 0 -8 -7 -17 -16 -20 -8 -3
-12 -10 -9 -16 4 -6 11 -8 16 -5 5 4 9 -1 9 -9 0 -8 9 -20 20 -26 11 -6 20
-16 20 -22 0 -7 -5 -6 -15 2 -8 7 -15 9 -16 4 0 -5 -4 1 -9 14 -5 12 -15 22
-22 22 -10 0 -9 -3 1 -9 8 -5 11 -16 8 -25 -4 -9 -2 -16 3 -16 6 0 10 -5 10
-10 0 -6 -12 -8 -27 -5 l-28 5 25 -10 c24 -11 24 -12 7 -25 -18 -13 -18 -14 0
-25 16 -10 16 -11 -4 -7 -13 3 -23 2 -23 -2 0 -4 -7 -8 -15 -8 -8 0 -15 7 -15
16 0 12 -2 13 -8 4 -5 -7 -20 -14 -35 -15 -15 -1 -27 -6 -27 -11 0 -5 -9 -7
-20 -4 -14 3 -26 -3 -40 -20 -25 -32 -25 -41 2 -70 12 -13 16 -23 10 -23 -7 0
-12 6 -12 13 0 8 -4 7 -10 -3 -8 -12 -10 -11 -10 6 0 12 -7 25 -16 28 -8 3
-12 2 -9 -4 3 -6 2 -10 -4 -10 -5 0 -13 5 -16 10 -4 6 -10 8 -14 5 -5 -2 -16
2 -26 9 -18 13 -18 15 -2 49 21 44 21 46 -2 40 -15 -4 -21 2 -26 26 -3 17 -3
36 1 43 9 13 10 18 12 52 2 20 2 20 18 0 15 -18 15 -18 9 4 -4 13 -2 22 4 22
15 0 13 31 -3 53 -12 16 -15 15 -40 -9 -21 -22 -24 -30 -14 -41 10 -12 9 -18
-4 -27 -10 -7 -20 -34 -23 -62 -4 -27 -8 -53 -9 -58 0 -6 10 -10 24 -10 34 -1
36 -27 5 -59 -27 -26 -26 -47 0 -47 31 0 112 -33 145 -59 19 -16 46 -32 60
-36 14 -4 43 -18 66 -31 50 -30 60 -30 67 -2 7 25 -17 58 -43 58 -19 0 -99 49
-118 73 -36 43 34 76 76 36 12 -10 29 -19 39 -19 14 1 12 5 -9 21 -32 24 -36
39 -10 39 23 0 123 -37 136 -50 18 -18 30 -11 13 8 -10 10 -17 23 -17 29 0 6
-6 23 -14 38 -11 22 -12 32 -3 46 7 11 17 19 24 19 7 0 16 7 21 16 12 21 76
47 120 48 17 1 32 6 32 13 0 19 -40 26 -58 11 -23 -19 -69 -38 -92 -38 -11 0
-26 12 -35 30 -15 29 -15 30 10 36 14 3 25 12 25 19 0 29 38 47 89 42 28 -3
55 -8 61 -12 16 -10 12 -33 -7 -44 -33 -18 -7 -21 41 -5 53 18 67 13 43 -14
-10 -10 -17 -23 -17 -29 0 -13 -26 -24 -42 -18 -7 3 -24 -4 -38 -15 l-25 -20
32 0 c17 0 39 -3 47 -6 12 -5 15 -2 10 9 -4 12 2 18 20 23 19 4 26 13 26 30 0
32 32 32 50 -1 18 -33 26 -25 23 24 -1 31 2 41 13 41 9 0 22 7 30 15 21 21 32
19 36 -7 2 -12 8 -23 15 -25 7 -3 9 3 6 17 -4 13 1 26 12 34 26 18 15 49 -25
68 -39 20 -129 98 -130 113 -2 19 -60 57 -80 52 -11 -3 -23 -1 -26 4 -3 5 0 9
7 9 8 0 8 4 -1 15 -14 17 -94 19 -147 4z m37 -119 c0 -5 7 -10 15 -10 8 0 15
-7 15 -15 0 -11 -9 -14 -32 -12 -35 4 -68 -16 -68 -40 0 -9 -7 -13 -17 -11
-10 2 -17 11 -17 20 1 13 -7 16 -40 16 -66 -1 -78 1 -74 14 3 7 31 12 75 14
39 1 83 8 99 17 36 18 44 20 44 7z"/>
<path d="M604 1634 c-5 -1 -26 -5 -46 -9 -21 -3 -38 -11 -38 -18 0 -7 -13 -12
-30 -13 -16 -1 -27 3 -24 7 8 13 -3 11 -37 -7 -39 -20 -32 -26 28 -25 31 0 66
10 97 26 27 14 57 25 67 25 10 0 20 4 24 9 5 9 -16 11 -41 5z"/>
<path d="M465 1424 c-11 -8 -28 -13 -37 -10 -13 3 -18 -2 -18 -16 0 -10 -4
-16 -10 -13 -5 3 -12 -6 -16 -20 -3 -14 -11 -25 -18 -25 -6 0 -3 -5 7 -11 14
-8 22 -8 30 1 9 8 7 10 -8 5 -15 -5 -12 0 10 19 28 24 30 24 50 8 20 -17 20
-17 1 6 -23 26 -16 38 13 23 14 -8 22 -8 27 1 4 7 3 8 -5 4 -8 -5 -10 0 -7 18
3 14 4 26 3 26 -1 0 -11 -7 -22 -16z"/>
<path d="M605 1429 c-6 -8 -4 -10 5 -4 9 5 11 4 6 -3 -4 -7 -14 -12 -22 -12
-8 0 -12 -4 -9 -10 12 -19 -6 -32 -23 -18 -15 11 -15 11 -5 -3 7 -9 11 -18 8
-20 -2 -3 7 -4 20 -4 25 2 49 15 27 15 -7 0 -12 7 -12 15 0 9 9 15 24 15 15 0
26 7 29 21 4 15 2 18 -7 10 -9 -7 -16 -7 -23 0 -8 8 -13 7 -18 -2z"/>
<path d="M1600 1279 c-19 -17 -27 -28 -18 -25 10 3 20 1 23 -5 4 -5 1 -8 -6
-7 -28 7 -16 -20 16 -35 34 -16 45 -39 26 -52 -5 -3 -12 4 -16 14 -3 11 -12
18 -19 15 -8 -3 -23 6 -34 20 -20 26 -42 34 -42 17 0 -5 6 -12 13 -15 6 -3 0
-3 -14 0 -29 6 -50 -13 -29 -26 16 -10 -35 -23 -61 -15 -22 7 -24 2 -6 -25 10
-17 9 -22 -3 -30 -11 -7 -11 -10 -2 -10 7 0 11 -4 7 -9 -3 -5 -20 -7 -38 -5
-20 4 -39 0 -52 -10 -19 -15 -19 -15 8 -16 17 0 27 -5 27 -15 0 -8 -7 -15 -15
-15 -8 0 -15 5 -15 10 0 6 -5 10 -11 10 -7 0 -19 9 -28 19 -17 19 -17 18 -15
-27 3 -61 3 -59 13 -43 5 8 17 16 26 17 13 2 14 -1 5 -11 -7 -8 -9 -19 -5 -26
5 -8 1 -9 -14 -4 -12 4 -21 2 -21 -4 0 -18 35 -12 60 9 13 12 30 18 37 16 7
-3 13 1 13 9 0 9 9 15 23 15 22 0 57 27 57 44 0 5 -11 5 -25 2 -19 -5 -23 -3
-19 9 4 8 10 15 15 15 13 0 11 34 -3 49 -11 11 -10 12 0 7 7 -4 19 -3 26 3 10
9 15 7 20 -5 4 -10 2 -22 -4 -28 -18 -18 -11 -36 15 -36 15 0 37 12 54 30 26
28 30 29 45 15 9 -9 16 -21 16 -26 0 -5 6 -9 14 -9 10 0 14 9 12 28 -1 15 2
33 8 41 6 7 11 42 11 78 1 49 -2 63 -12 59 -7 -3 -13 -1 -13 4 0 17 -15 11
-50 -21z m-20 -104 c0 -20 -10 -23 -35 -11 -33 15 -31 23 5 23 17 0 30 -6 30
-12z"/>
<path d="M1127 1270 c-16 -13 -24 -26 -20 -33 4 -7 8 -18 8 -24 0 -7 4 -12 9
-12 5 0 12 -5 17 -12 6 -11 13 -10 34 1 18 9 22 16 13 21 -7 4 -17 24 -23 44
l-10 37 -28 -22z"/>
<path d="M1175 1140 c-3 -5 -1 -10 5 -10 10 0 40 -58 40 -76 0 -3 -9 -4 -20
-1 -28 7 -46 -18 -23 -32 15 -10 14 -10 -8 -5 -15 3 -30 1 -33 -4 -7 -12 -46
-4 -46 9 0 5 -4 9 -10 9 -5 0 -10 -6 -10 -14 0 -15 -29 -15 -62 -1 -13 5 -18
2 -18 -9 0 -9 -4 -16 -10 -16 -5 0 -10 4 -10 9 0 5 -15 12 -32 16 -37 8 -156
63 -164 77 -7 10 -44 11 -44 0 0 -5 15 -26 34 -48 18 -21 36 -48 40 -60 8 -27
128 -104 161 -104 50 0 64 -15 62 -70 -1 -28 -6 -50 -10 -51 -10 0 -118 39
-140 51 -13 8 -24 6 -43 -6 -19 -13 -28 -14 -36 -6 -9 9 -7 16 8 27 15 11 16
15 4 15 -8 1 -24 3 -35 5 -109 17 -130 14 -103 -13 10 -10 10 -17 -1 -34 -11
-17 -11 -22 1 -29 7 -5 19 -9 26 -9 7 0 11 -4 8 -9 -6 -10 -77 -3 -114 10 -16
6 -22 16 -21 36 1 16 1 37 0 47 -1 18 -2 18 -19 3 -14 -13 -21 -14 -30 -5 -23
23 -14 41 16 35 37 -7 56 5 48 31 -8 26 -29 31 -81 19 -50 -10 -60 -20 -47
-44 15 -28 30 -151 20 -161 -11 -11 -12 -30 -4 -108 4 -33 2 -72 -3 -86 -9
-24 -13 -26 -48 -18 -20 5 -39 7 -41 6 -2 -2 0 -15 4 -30 7 -28 20 -34 27 -13
3 9 7 9 18 0 9 -7 20 -8 28 -3 8 4 20 6 27 3 15 -6 34 33 34 70 1 59 4 65 45
77 22 6 57 25 79 42 36 29 40 30 77 19 49 -15 57 -29 22 -37 -43 -10 -46 -15
-24 -31 25 -17 27 -40 5 -71 -9 -13 -13 -26 -10 -29 7 -8 36 16 36 31 0 20 15
34 43 41 21 6 27 4 27 -9 0 -9 -5 -16 -11 -16 -6 0 -9 -7 -6 -15 4 -8 2 -17
-3 -20 -5 -3 -7 -23 -5 -45 4 -34 2 -40 -15 -40 -11 0 -28 9 -39 21 -11 12
-24 18 -30 14 -6 -3 -11 1 -11 10 0 10 -7 15 -17 13 -10 -2 -18 -10 -18 -18 0
-8 -12 -23 -27 -33 -15 -10 -30 -27 -33 -37 -3 -10 -12 -21 -20 -24 -8 -3 -15
-12 -15 -21 0 -13 -7 -15 -37 -9 -21 4 -39 11 -41 15 -2 5 -10 9 -18 9 -12 0
-12 -4 -2 -20 7 -11 22 -20 33 -20 39 0 57 -22 53 -65 -3 -36 -6 -40 -28 -38
-51 5 -68 13 -73 35 -5 19 -8 20 -19 9 -9 -9 -10 -15 -2 -18 6 -2 9 -14 7 -28
-4 -20 -2 -23 17 -18 22 6 23 4 17 -35 -3 -24 -1 -45 5 -48 6 -4 5 -10 -3 -15
-18 -11 -29 -2 -29 22 0 12 -5 19 -11 17 -6 -2 -10 -7 -10 -11 1 -4 1 -18 1
-31 0 -21 5 -24 41 -24 58 -1 84 12 99 48 7 17 18 29 24 27 18 -6 19 -46 2
-53 -37 -14 -11 -24 62 -24 49 0 87 6 106 15 31 17 87 20 102 6 5 -5 27 -11
49 -15 l40 -6 -24 20 c-15 13 -21 27 -18 39 7 30 -34 36 -54 9 -16 -21 -17
-21 -27 -2 -8 16 -6 24 12 41 32 31 60 32 93 2 29 -25 47 -26 70 -3 17 17 -11
40 -44 36 -14 -2 -30 3 -36 13 -11 14 -17 14 -65 -6 -28 -12 -53 -28 -53 -35
-4 -38 -19 -58 -44 -61 -11 -1 -35 -5 -53 -9 -27 -5 -41 -1 -77 25 -26 18 -50
29 -59 25 -23 -9 -20 23 3 36 11 5 30 10 42 10 16 0 20 -5 16 -19 -5 -21 15
-35 71 -50 26 -8 32 -7 32 6 0 8 -9 17 -20 20 -11 3 -20 9 -20 14 0 5 -8 6
-17 2 -17 -6 -17 -5 -1 13 17 17 19 17 46 -9 25 -24 52 -36 52 -23 0 11 -57
63 -83 76 -21 10 -30 11 -39 2 -16 -16 -43 -15 -57 2 -9 10 -9 21 1 42 36 85
81 116 125 87 24 -16 26 -16 35 0 5 9 18 17 29 17 11 0 22 7 25 15 4 8 10 15
15 15 6 0 21 7 35 17 30 19 86 25 96 10 4 -6 -6 -29 -22 -50 -16 -21 -26 -45
-23 -53 3 -9 -2 -14 -16 -14 -11 0 -32 -13 -46 -29 -19 -21 -32 -27 -50 -23
-27 5 -32 -6 -12 -28 6 -7 -5 -3 -26 10 -21 12 -41 20 -44 16 -3 -3 -12 -1
-20 6 -10 8 -17 8 -25 0 -8 -8 -6 -13 8 -18 59 -19 78 -30 93 -55 l17 -27 11
24 c6 13 7 22 2 18 -5 -3 -9 -3 -9 -1 0 6 60 42 75 46 6 1 13 11 17 22 4 10
14 19 22 19 9 0 28 27 46 66 29 62 32 65 49 50 20 -18 41 -22 23 -4 -17 17
-15 38 4 38 11 0 14 -5 9 -17 -5 -14 -4 -15 6 -6 9 9 8 18 -5 38 -9 14 -24 29
-33 32 -14 6 -14 7 3 14 17 7 17 8 1 8 -10 1 -15 5 -12 11 3 5 -15 22 -40 38
-25 15 -42 31 -39 35 4 4 0 7 -10 7 -9 0 -15 -4 -12 -9 3 -5 -1 -12 -10 -15
-8 -3 -12 -2 -9 4 10 17 -7 11 -20 -6 -9 -13 -20 -15 -49 -10 -35 7 -37 9 -34
39 3 35 -25 79 -46 71 -7 -3 -12 5 -13 18 0 13 1 17 4 11 7 -18 23 -16 23 2 0
9 -7 18 -15 21 -22 9 -18 24 5 24 26 0 43 -39 26 -59 -9 -12 -8 -12 12 0 12 8
18 15 12 17 -16 6 -12 20 5 18 9 -1 15 -6 14 -11 0 -4 5 -12 13 -16 18 -12 68
-11 68 1 0 19 27 10 40 -14 7 -14 18 -22 26 -19 8 3 12 8 10 12 -3 4 7 7 21 6
20 0 27 -5 28 -23 2 -21 1 -21 -17 -5 -20 18 -23 17 -33 -16 -5 -16 -4 -21 4
-17 7 4 9 1 5 -7 -3 -8 0 -18 5 -22 6 -3 9 -10 7 -14 -3 -3 4 -7 14 -7 10 0
16 4 14 8 -3 4 2 5 10 2 8 -3 12 -12 9 -20 -3 -8 0 -14 6 -14 6 0 11 4 11 8 0
5 7 9 15 9 11 0 13 -8 10 -26 -9 -47 3 -76 32 -78 14 0 29 -6 33 -12 5 -9 10
-7 20 4 7 8 19 15 27 15 8 0 11 5 8 11 -5 7 -13 5 -24 -5 -13 -12 -20 -13 -29
-4 -18 18 -15 26 11 30 21 3 20 5 -11 25 -23 14 -30 23 -22 28 7 4 16 1 21 -6
6 -10 9 -11 9 -1 0 6 12 12 26 12 18 0 24 -4 21 -13 -3 -9 3 -13 17 -13 12 1
20 -4 18 -12 -1 -8 2 -11 9 -6 6 4 21 7 32 8 11 1 22 8 25 16 3 8 1 12 -3 7
-5 -4 -36 8 -70 27 -42 23 -66 31 -73 24 -6 -6 -12 -6 -16 1 -12 19 -24 12
-19 -9 5 -20 5 -21 -36 -4 -23 9 -52 14 -64 12 -16 -3 -24 0 -24 10 0 10 12
13 49 10 26 -1 48 -1 48 1 0 2 -11 12 -25 23 -18 14 -23 24 -16 32 5 6 8 27 6
46 -1 19 2 38 8 42 11 7 117 -80 114 -94 -1 -5 22 -22 52 -39 30 -17 66 -39
79 -50 35 -27 43 -24 26 10 -13 27 -27 38 -47 39 -5 0 -21 14 -36 31 -15 17
-34 31 -42 31 -8 1 -30 15 -49 32 -32 28 -33 30 -10 25 14 -3 35 -9 48 -12 19
-7 22 -4 22 23 0 32 -30 59 -50 47 -6 -3 -10 1 -10 9 0 9 -5 16 -11 16 -5 0
-7 4 -4 10 3 5 18 7 33 4 17 -3 37 2 55 14 l27 19 -25 11 c-21 10 -26 9 -36
-10 -9 -16 -13 -18 -20 -7 -7 11 -11 11 -21 -4 -11 -14 -19 -15 -45 -8 -18 5
-33 6 -33 1 0 -4 -11 -10 -25 -12 -17 -4 -25 -1 -25 9 0 8 4 12 9 8 5 -3 12
-1 15 4 7 10 -15 36 -36 44 -7 2 -10 7 -7 11 10 10 69 -15 69 -30 0 -8 6 -14
14 -14 9 0 13 10 12 25 0 14 -4 25 -8 25 -5 0 -8 5 -8 10 0 23 21 7 27 -20 4
-21 11 -30 24 -30 11 0 19 6 19 13 0 9 3 8 9 -2 6 -9 14 -10 26 -4 9 6 37 8
61 5 48 -4 55 4 23 31 -18 16 -22 17 -32 3 -15 -18 -69 -25 -74 -9 -4 12 34
29 44 19 3 -3 12 2 20 10 8 8 19 12 24 9 5 -4 9 1 9 9 0 9 -6 16 -14 16 -9 0
-12 8 -9 25 9 46 -52 118 -72 85z m-285 -143 c0 -5 5 -5 10 -2 6 3 10 1 10 -5
0 -6 10 -10 23 -8 15 2 25 -4 32 -19 11 -27 30 -31 20 -5 -5 13 -3 14 6 5 14
-14 6 -41 -15 -49 -17 -6 -130 56 -127 70 2 5 -3 12 -9 16 -6 4 2 7 19 6 17
-1 31 -5 31 -9z m240 -127 c0 -5 -6 -10 -12 -11 -8 0 -7 -3 2 -6 22 -9 44 -33
30 -33 -6 0 -8 -4 -5 -10 3 -5 2 -10 -4 -10 -16 0 -22 18 -9 24 7 3 3 3 -9 0
-17 -4 -23 -1 -23 11 0 9 -4 14 -9 11 -4 -3 -17 1 -27 9 -18 14 -18 14 2 11
11 -3 27 0 35 5 19 12 29 11 29 -1z m-596 -82 c-2 -3 1 -8 6 -10 24 -8 13 -68
-15 -84 -25 -13 -32 -9 -15 11 10 12 10 15 -1 15 -9 0 -10 3 -2 11 6 6 8 23 3
44 -4 19 -5 36 -3 39 7 7 32 -17 27 -26z m150 -64 c19 -7 11 -24 -11 -24 -9 0
-27 -9 -39 -21 -31 -29 -64 -18 -64 22 0 28 1 29 49 29 27 0 56 -3 65 -6z
m254 -153 c2 -6 -11 -17 -29 -25 -21 -9 -27 -15 -18 -19 10 -4 9 -6 -4 -6 -14
-1 -16 4 -11 24 4 15 2 25 -5 25 -18 0 -13 18 7 22 22 6 55 -6 60 -21z m180
-25 c3 -13 -1 -17 -14 -14 -11 2 -20 11 -22 22 -3 13 1 17 14 14 11 -2 20 -11
22 -22z m-140 -3 c-2 -10 -13 -19 -26 -21 -24 -4 -29 7 -10 26 18 18 40 15 36
-5z m-441 -400 c-19 -19 -29 -13 -31 19 -2 30 26 42 38 16 7 -14 5 -23 -7 -35z"/>
<path d="M1392 1128 c-16 -16 -15 -28 3 -28 8 0 15 2 15 4 0 2 3 11 6 20 7 19
-7 21 -24 4z"/>
<path d="M804 701 c0 -15 3 -17 13 -9 10 8 13 6 13 -6 0 -9 7 -16 16 -16 8 0
13 -4 10 -9 -5 -8 94 -23 102 -16 2 2 -5 12 -16 23 -13 13 -24 17 -34 11 -11
-6 -28 -1 -52 16 -44 30 -52 31 -52 6z"/>
<path d="M355 698 c-9 -23 -11 -109 -3 -114 11 -7 48 71 48 101 0 18 -5 25
-20 25 -11 0 -23 -6 -25 -12z"/>
<path d="M1148 308 c-10 -12 -18 -26 -18 -30 0 -4 -8 -8 -17 -8 -14 0 -15 -2
-4 -12 10 -11 15 -10 25 5 7 9 18 17 25 17 6 0 11 4 11 9 0 15 41 24 53 12 17
-17 28 -13 16 7 -6 10 -22 19 -36 20 -14 1 -21 -2 -18 -8 3 -6 2 -10 -4 -10
-5 0 -11 4 -13 10 -1 5 -11 0 -20 -12z"/>
</g>
</svg>
